<?xml version="1.0" standalone="no"?>
<!DOCTYPE svg PUBLIC "-//W3C//DTD SVG 1.1//EN" "http://www.w3.org/Graphics/SVG/1.1/DTD/svg11.dtd" >
<!--
2013-9-30: Created.
-->
<svg>
<metadata>
Created by iconfont
</metadata>
<defs>

<font id="iconfont" horiz-adv-x="1024" >
  <font-face
    font-family="iconfont"
    font-weight="500"
    font-stretch="normal"
    units-per-em="1024"
    ascent="896"
    descent="-128"
  />
    <missing-glyph />
    
    <glyph glyph-name="sousuo" unicode="&#58918;" d="M685.14927 70.282186C616.194448 13.854611 528.050806-20 432-20 211.0861-20 32 159.086099 32 380 32 600.9139 211.0861 780 432 780 652.913901 780 832 600.9139 832 380 832 283.949194 798.145389 195.805552 741.717814 126.85073L979.157526-110.588986C994.734694-126.16615 994.80809-151.348333 979.078211-167.078211 963.457238-182.699181 938.154406-182.722947 922.588986-167.157526L685.14927 70.282186ZM432.000016 56.799971C610.498454 56.799971 755.200029 201.501546 755.200029 379.999984 755.200029 558.498423 610.498454 703.199997 432.000016 703.199997 253.501577 703.199997 108.800003 558.498423 108.800003 379.999984 108.800003 201.501546 253.501577 56.799971 432.000016 56.799971L432.000016 56.799971 432.000016 56.799971Z"  horiz-adv-x="1024" />

    
    <glyph glyph-name="dayu" unicode="&#59525;" d="M775.51104 735.353173c-9.72032 0-19.327147-0.685227-28.8768-2.061653-54.674773 74.486613-140.965547 119.179093-234.635093 119.179093-93.673813 0-179.91168-44.69248-234.633387-119.179093-9.55136 1.376427-19.1616 2.061653-28.882773 2.061653-112.999253 0-204.9536-91.9552-204.9536-204.95616 0-113.000107 91.953493-204.95616 204.9536-204.95616 25.04704 0 49.582933 4.57472 72.684373 13.439147 52.954453-46.21056 120.378027-71.998293 190.831787-71.998293 70.51264 0 137.87648 25.787733 190.833493 71.998293 23.099733-8.864427 47.637333-13.439147 72.6784-13.439147 113.005227 0 204.959573 91.956053 204.959573 204.95616C980.470613 643.397973 888.51712 735.353173 775.51104 735.353173zM775.51104 384.001707c-31.337813 0-60.214613 10.06336-84.056747 26.81856-42.947413-51.75552-106.940587-85.37856-179.455147-85.37856-72.513707 0-136.50688 33.62304-179.45344 85.37856-23.78496-16.7552-52.718933-26.81856-84.06272-26.81856-80.863573 0-146.397013 65.53344-146.397013 146.39616 0 80.863573 65.53344 146.395307 146.397013 146.395307 19.785387 0 38.546773-4.028587 55.699627-11.118933 38.833493 75.798187 116.83072 128.239787 207.816533 128.239787 90.981547 0 168.98304-52.440747 207.761067-128.239787 17.21088 7.090347 36.022613 11.118933 55.750827 11.118933 80.864427 0 146.397013-65.531733 146.397013-146.395307C921.908907 449.535147 856.375467 384.001707 775.51104 384.001707zM455.2704-25.91232c0-32.364373 26.1888-58.559147 58.561707-58.559147 32.362667 0 58.55744 26.194773 58.55744 58.559147 0 32.365227-58.55744 117.11744-58.55744 117.11744S455.2704 6.452907 455.2704-25.91232zM687.675733 32.64768c0-32.366933 26.194773-58.56 58.555733-58.56 32.36864 0 58.563413 26.193067 58.563413 58.56 0 32.365227-58.563413 117.11744-58.563413 117.11744S687.675733 65.012907 687.675733 32.64768zM219.20512 149.766827c0-32.366933 26.194773-58.56 58.55744-58.56 32.366933 0 58.561707 26.193067 58.561707 58.56 0 32.364373-58.561707 117.116587-58.561707 117.116587S219.20512 182.130347 219.20512 149.766827z"  horiz-adv-x="1024" />

    
    <glyph glyph-name="bianji" unicode="&#58932;" d="M250.487961 114.469334 451.66996 200.120063 328.172251 321.626417ZM848.057849 588.54049 720.576409 720.00566 351.07896 355.488643 483.539808 218.047364ZM953.081811 745.791953c0 0-33.744545 37.346583-72.585155 65.729004s-68.717058 0-68.717058 0l-65.729004-65.729004 133.450385-132.953058c0 0 56.268538 56.766888 73.580832 76.18617C970.394105 708.44537 953.081811 745.791953 953.081811 745.791953zM810.958906 45.629479c0-9.215896-7.471159-16.687054-16.687054-16.687054l-622.190635 0c-9.215896 0-16.687054 7.471159-16.687054 16.687054L155.394163 662.896988c0 9.215896 7.471159 16.687054 16.687054 16.687054l395.560034 0 82.390475 87.663572L87.35658 767.247614c-11.120268 0-20.134573-9.014304-20.134573-20.134573l0-785.700639c0-11.120268 9.014304-20.134573 20.134573-20.134573l791.640931 0c11.120268 0 20.134573 9.014304 20.134573 20.134573L899.132084 522.585335l-88.171132-81.838913L810.960952 45.629479z"  horiz-adv-x="1024" />

    
    <glyph glyph-name="baoyu" unicode="&#58891;" d="M937.5 444.1c-12.9 30.2-31.3 57.2-54.7 80.4-23.4 23.2-50.6 41.3-80.9 54.1-30.1 12.6-61.9 19.3-94.7 19.8-3.2 12.3-7.4 24.4-12.4 36.2-13.5 31.6-32.8 60-57.4 84.4-24.5 24.3-53.1 43.4-84.9 56.7-32.9 13.8-67.8 20.8-103.8 20.8s-70.9-7-103.8-20.8c-31.8-13.3-60.4-32.4-84.9-56.7-24.6-24.4-43.9-52.7-57.4-84.4-14-32.8-21.1-67.7-21.1-103.6 0-6.7 0.3-13.4 0.8-20.1-22.4-12.1-42.8-28-60.1-47.2-37-41-57.4-93.7-57.4-148.6 0-30.1 6-59.3 17.8-86.9 11.4-26.5 27.6-50.3 48.2-70.7 20.6-20.4 44.5-36.4 71.1-47.6 24.6-10.4 50.6-16.2 77.2-17.3l39.9 75.8h-30.1c-81.4 0-148 66.1-148 146.8 0 74.8 57.3 137 130.5 145.6-8.8 21.7-13.7 45.4-13.7 70.3 0 104.7 85.6 189.5 191.1 189.5s191.1-84.8 191.1-189.5c0-7-0.4-13.9-1.2-20.6 20 7.7 41.6 12 64.3 12 98.6 0 178.6-79.3 178.6-177 0-91.9-70.6-167.4-161-176.2-5.2-0.6-10.5-0.9-15.9-0.9h-56.6l-40-76h96.6c7.6 0 15.6 0.4 23.6 1.3 62.4 6.1 120.1 34.9 162.6 81.1 43 46.7 66.7 107.3 66.7 170.7 0 34.1-6.7 67.3-20.1 98.6zM434.3 229.5L352 85.4h61.7L352-38l205.7 185.2H496l61.7 82.3zM589 481.6c-10.8 0-21.6 4.6-29.1 13.5-13.5 16-11.5 40 4.5 53.5 38.3 32.3 87 50.1 137.2 50.1 21 0 38-17 38-38s-17-38-38-38c-32.3 0-63.6-11.4-88.2-32.2-7-5.9-15.7-8.9-24.4-8.9z"  horiz-adv-x="1024" />

    
    <glyph glyph-name="zhuantiyubao" unicode="&#59044;" d="M310.4768 777.8304c-132.9152-1.2288-241.664-118.5792-244.3264-251.0848h-0.8192l-1.4336-535.1424 535.7568-1.4336c132.096 2.2528 244.9408 110.7968 247.6032 242.4832h0.2048l1.4336 543.5392-538.4192 1.6384z m473.2928-565.4528c-2.6624-89.9072-71.4752-155.8528-161.3824-158.72l-494.592 1.4336 1.4336 488.8576c1.8432 92.16 68.8128 170.1888 161.5872 170.3936l494.1824-1.4336-1.4336-500.736 0.2048 0.2048zM914.432 831.0784H385.2288V785.408h529.2032v-529.2032h45.6704V831.0784h-45.6704zM297.984 233.2672h316.6208v-63.6928H297.984v63.6928zM297.984 360.6528h316.6208v-63.6928H297.984v63.6928zM297.984 489.2672h316.6208v-63.6928H297.984v63.6928z"  horiz-adv-x="1024" />

    
    <glyph glyph-name="zhongyu" unicode="&#59000;" d="M1000.773137 443.184138c-14.689095 34.501055-35.75363 65.586185-62.626671 92.117429-26.758427 26.530221-57.958171 47.368596-92.686408 61.943076-34.61567 14.57448-71.280077 22.203518-109.083467 22.65993-3.757723 14.232683-8.539815 28.352798-14.347298 42.016502-15.486281 36.209018-37.576207 68.774928-65.700799 96.671314-28.124592 27.89741-60.804093 49.760154-97.241318 65.018228-37.689799 15.827055-77.770131 23.797889-118.875855 23.79789s-81.186057-7.970835-118.875856-23.79789c-36.437224-15.258075-69.116725-37.119795-97.241317-65.018228-28.124592-27.896386-50.214519-60.462296-65.7008-96.671314-16.055261-37.576207-24.139687-77.542949-24.139686-118.648673 0-7.85622 0.341797-15.713463 0.910777-23.569684-25.84765-13.891909-49.303742-32.110521-69.343908-54.314039-42.47189-46.798593-65.814391-107.261912-65.814391-170.115766 0-34.387464 6.831852-67.977742 20.381964-99.519283 12.981132-30.288967 31.541541-57.616374 55.111224-80.958875 23.570707-23.342501 50.898113-41.674704 81.414263-54.541221 17.876815-7.515446 36.436201-12.981132 55.453022-16.283467l43.496259 82.780429c-93.255389 0.341797-169.432171 76.062168-169.432172 168.521394 0 85.968148 65.814391 157.249248 149.847394 167.26882-10.020595 24.936872-15.713463 52.150688-15.713463 80.730668 0 120.243044 98.266709 217.597953 219.533098 217.597954 100.606076 0 185.453662-67.088455 211.44765-158.542757a244.028909 244.028909 0 0 1-67.52133-40.267605C565.805437 546.687304 563.528494 519.359898 578.90016 501.141286c8.539815-10.134186 20.837352-15.371666 33.13489-15.371667 9.792389 0 19.698369 3.302335 27.783818 10.133163 28.352798 23.797889 64.448225 37.006204 101.56802 37.006204 0.958874 0 1.907515 0.041957 2.85104 0.103358 107.723441-6.137 193.111353-94.609274 193.111352-203.012216 0-105.553949-81.072466-192.205692-184.80486-202.339879a161.46543 161.46543 0 0 0-18.218613-1.024368h-5.692868l-45.546019-86.538152h51.239911c8.76802 0 17.763224 0.455389 26.986632 1.480781 71.508283 7.059034 137.663447 39.966741 186.284618 92.914614 49.303742 53.516853 76.403965 122.974352 76.403966 195.507004-0.113591 39.170579-7.970835 77.315766-23.22891 113.18401zM343.310777 42.945699c-21.065558 11.159578-47.253981 3.188743-58.527151-17.876815l-22.203517-41.674704c-11.159578-21.065558-3.188743-47.253981 17.876815-58.527151 6.491078-3.529517 13.436521-5.123889 20.268372-5.123889 15.486281 0 30.402558 8.311609 38.258778 23.000704l22.203518 41.674704c11.159578 21.065558 3.188743 47.253981-17.876815 58.527151zM437.819763 208.391941c-21.065558 11.159578-47.253981 3.188743-58.52715-17.876815l-22.203518-41.674704c-11.158555-21.065558-3.18772-47.253981 17.876815-58.52715 6.490054-3.529517 13.436521-5.123889 20.268372-5.123889 15.485257 0 30.402558 8.312632 38.257755 23.000703l22.204541 41.674705c11.159578 21.065558 3.188743 47.253981-17.876815 58.52715zM554.532267 42.945699c-21.065558 11.159578-47.253981 3.188743-58.52715-17.876815l-22.203518-41.674704c-11.158555-21.065558-3.18772-47.253981 17.876815-58.527151 6.490054-3.529517 13.436521-5.123889 20.268372-5.123889 15.486281 0 30.402558 8.311609 38.257755 23.000704l22.204541 41.674704c11.159578 21.065558 3.188743 47.253981-17.876815 58.527151zM649.042277 208.391941c-21.065558 11.159578-47.255005 3.188743-58.527151-17.876815l-22.204541-41.674704c-11.159578-21.065558-3.188743-47.253981 17.876815-58.52715 6.491078-3.529517 13.436521-5.123889 20.268372-5.123889 15.485257 0 30.401535 8.312632 38.258779 23.000703l22.204541 41.674705c11.158555 21.065558 3.188743 47.253981-17.876815 58.52715z"  horiz-adv-x="1024" />

    
    <glyph glyph-name="GIS" unicode="&#58948;" d="M887.619779 286.451931a1496.578062 1496.578062 0 0 0-123.546332-152.981379 15.396794 15.396794 0 0 0-22.642343 0 1477.315897 1477.315897 0 0 0-123.416947 152.722609c-62.234099 88.82268-136.436295 218.983811-136.436295 334.977304C481.577862 772.712438 603.231941 896 752.719929 896s271.174414-123.287562 271.174414-274.829535c0-115.9288-74.137503-245.992893-136.30691-334.783227zM752.752276 792.589181c-91.280992 0-165.54788-75.253447-165.54788-167.795941s74.266888-167.860633 165.54788-167.860633S918.332501 532.283092 918.332501 624.79324 844.049441 792.589181 752.752276 792.589181zM488.338219 138.079886l-408.613441 45.284688 58.22317 204.557403a27.348717 27.348717 0 0 0 26.313638 20.022302h303.747043a780.934439 780.934439 0 0 1 52.449372-114.327664l-32.119782-155.536729z m-54.810645-265.966674H27.404791a27.494275 27.494275 0 0 0-21.914554 11.046229 28.189718 28.189718 0 0 0-4.382911 24.389039L56.597241 102.224118l414.872432-45.980132-37.942099-184.130774z m151.089125 319.240875q25.003617-35.580826 52.125911-69.722246l-66.309722 7.358762 13.181079 63.867582 1.051252-1.504098z m351.101888 21.591092l36.632078-128.527648-122.705331 13.569234q37.553945 45.381726 71.51746 93.593745 7.294069 10.415478 14.652831 21.380842z m61.312232-215.102267l25.246214-88.628603a28.125026 28.125026 0 0 0 1.61731-9.477438 27.494275 27.494275 0 0 0-27.36489-27.736871H517.385111l36.098366 174.992972 443.579689-49.15006z"  horiz-adv-x="1024" />

    
    <glyph glyph-name="alarm" unicode="&#58884;" d="M926.033 70.31200000000001c0-28.144-26.825-50.96-59.915-50.96H158.504c-33.09 0-59.915 22.815-59.915 50.96 0 6.473 1.475 12.639 4.063 18.336l-0.641 0.54c82.906 167.108 272.879 473.871 354.724 638.84l0.153-1.657c7.997 19.51 29.759 33.532 55.423 33.532 24.578 0 45.604-12.851 54.365-31.074l0.126 1.387c81.578-164.432 272.535-473.179 355.809-641.029l-0.641-0.54c2.587-5.696 4.063-11.863 4.063-18.335zM555.719 519.749c-0.879 26.355-22.507 47.454-49.076 47.454-27.127 0-49.118-21.991-49.118-49.118l21.727-265.763h57.788m13.252-64.584c-0.232 0.279-0.473 0.55-0.713 0.823-10.393 12.059-25.767 19.704-42.936 19.704-31.3 0-56.674-25.374-56.674-56.674s25.374-56.674 56.674-56.674 56.674 25.374 56.674 56.674c0.001 13.74-4.891 26.337-13.025 36.147z"  horiz-adv-x="1024" />

    
    <glyph glyph-name="yujing" unicode="&#59097;" d="M1059.509677 303.070968h-136.258064v24.278709c0 13.708387-0.660645 27.086452-1.981936 40.299355h138.405162a32.305548 32.305548 0 0 0-0.165162-64.578064zM834.56 575.256774a393.265548 393.265548 0 0 1-44.923871 45.914839l100.748387 103.556129a31.01729 31.01729 0 0 0 44.75871 0 33.213935 33.213935 0 0 0 0-46.08z m25.765161-638.513548h73.331613a32.388129 32.388129 0 0 0 0-64.743226H158.224516a32.388129 32.388129 0 0 0 0 64.743226h73.331613V324.707097a314.58271 314.58271 0 1 0 628.934194 0z m-62.76129 366.327742a251.639742 251.639742 0 1 1-503.08129 0v-366.327742h503.08129V303.070968z m-246.090323 137.744516a31.116387 31.116387 0 0 0 44.593549 0 33.114839 33.114839 0 0 0 0-45.914839l-68.376774-70.193548h112.970322a31.793548 31.793548 0 0 0 31.380645-32.371613 32.338581 32.338581 0 0 0-2.477419-12.717419 34.00671 34.00671 0 0 0-7.762581-33.692904l-123.210322-126.843871a32.206452 32.206452 0 0 0-46.245162 0 34.105806 34.105806 0 0 0 0 47.566452l90.673549 93.316129h-110.162581a369.317161 369.317161 0 0 0-39.803871 12.882581 33.131355 33.131355 0 0 0 0 45.749677zM514.972903 711.019355V863.628387a31.380645 31.380645 0 1 0 62.761291 0v-152.609032c-10.570323 0.825806-20.975484 1.651613-31.710968 1.651613s-20.810323-0.825806-31.050323-1.651613z m-252.366451-129.981936l-101.904517 104.87742a32.916645 32.916645 0 0 0 0 45.584516 30.637419 30.637419 0 0 0 44.428388 0l102.730322-105.538065a387.501419 387.501419 0 0 1-45.254193-44.923871z m-93.811613-253.687742v-24.278709H32.371613a32.388129 32.388129 0 0 0 0 64.743226h138.405161c-1.32129-13.378065-1.981935-26.756129-1.981935-40.464517z m0 0"  horiz-adv-x="1091" />

    
    <glyph glyph-name="yonghuguanli" unicode="&#58959;" d="M744.03125001 367.125c-42.1875-25.3125-88.59375001-42.1875-143.43750002-42.1875-50.625 0-101.25 16.875-143.43749998 42.1875-109.6875-54.84375001-185.625-168.75-185.62500002-299.53125001 0-139.21875001 662.34375001-139.21875001 662.34375001 2e-8 0 130.78125001-75.9375 244.6875-189.84375001 299.53124999M381.21874999 582.28125001C381.21874999 704.625 478.25 805.875 604.8125 805.875s223.59375001-101.25 223.59375001-223.59375001-101.25-223.59375001-223.59375001-223.59374999-223.59375001 101.25-223.59375001 223.59375001M233.5625 54.9375c0-4.21875001 0-8.4375 4.21875001-12.65625001-84.375 12.65625001-147.65625001 37.96875001-147.65625001 80.15625001 0 113.90625001 67.5 210.9375 160.3125 257.34375001 33.75-25.3125 75.9375-37.96875001 118.125-37.96875001-84.375-67.5-135-172.96875001-135-286.875M343.25 582.28125001c0 54.84375001 16.875 109.6875 50.625 151.87499998h-16.875C275.75 734.15625001 191.375 654 191.375 552.75s80.15625001-185.625 181.40625001-185.625c21.09375001 0 46.40625001 4.21875001 63.28124999 12.65625001C381.21874999 426.1875 343.25 502.125 343.25 582.28125001m0-2e-8"  horiz-adv-x="1024" />

    
    <glyph glyph-name="zhandian" unicode="&#58880;" d="M834 444.5c0 177.8-144.2 322-322 322s-322-144.2-322-322c0-97.8 43.6-185.3 112.3-244.4l167.3-180.2c22.8-24.6 61.8-24.6 84.6 0l167.3 180.2C790.4 259.2 834 346.8 834 444.5z m-558 0c0 130.3 105.7 236 236 236s236-105.7 236-236-105.7-236-236-236-236 105.7-236 236zM537.6 376.6c0-2.2 1.8-4 4-4.1h0.4c23.2 0 46.4-0.1 69.5 0.1 2.4 0 5.3 1.2 7.1 2.8 11.6 10.1 23.2 20.3 34.5 30.7 3.8 3.5 6.3 1.9 10.7 0.5 3.7-1.2 6.1-2.2 9-3.6 3.9-1.8 8-3.5 11.5-6 3.8-2.8 4.9-7.1 2.5-11.3-4.1-7.2-7.8-14.8-13-21.1-14.6-17.6-29.8-34.6-44.9-51.7-1.2-1.4-3.8-2.3-5.7-2.3-38.4-0.1-76.8-0.1-115.2 0-2.4 0-5 0.8-7.3 1.7-25.1 9.5-50.7 13.5-77 6.3-7.9-2.1-15.3-6.2-22.9-9.4-1.7-0.7-3.4-1.3-5.1-1.9-6-1.9-10.2 0.4-14.5 4.9-14 14.7-28.6 28.8-42.9 43.2-3.3 3.3-2.8 11.8 1.2 14.1 36.6 21 62.6 35.8 99.3 56.7 8.4 4.8 21.2 8.1 40 3.5 13.4-3.3 22.7-5.9 35.6-10.7 2.6-1 5.5-1.9 8.2-1.9 25.2-0.1 50.4-0.1 75.6-0.1 16.5 0 25-13.1 18.3-28.4-2.4-5.5-5.7-8.6-12.6-8.4-20.1 0.6-40.3 0.2-60.4 0.2h-1.6c-2.5 0.3-4.3-1.5-4.3-3.8z m0 4.1M615.1 418.5v5.8V538c0 7-1.2 8.2-8.3 8.2h-34c-6 0-7.4-1.5-7.4-7.5v-48.6c0-3-2.4-5.5-5.5-5.5h-74.4c-3 0-5.5 2.4-5.5 5.5v48.2c0 6.6-1.3 7.9-8.1 7.9h-34.5c-5.6 0-7.1-1.6-7.1-7.3v-88.7c0-3-2.4-5.5-5.5-5.5h-17.2c-3 0-5.5 2.4-5.5 5.5V567.8c0 3 2.4 5.5 5.5 5.5h228c3 0 5.5-2.4 5.5-5.5V424c0-3-2.4-5.5-5.5-5.5h-20.5z m0 0"  horiz-adv-x="1024" />

    
    <glyph glyph-name="guanliyuan" unicode="&#58936;" d="M495.104 345.6c-162.304 0-294.4-88.576-294.4-198.144 0-37.376 25.088-51.712 98.816-62.976 57.344-8.704 124.928-8.704 197.12-8.704 73.728 0 146.432 0 198.144 8.704 72.704 11.776 97.792 25.6 97.792 62.976C792.064 257.024 657.92 345.6 495.104 345.6zM336.384 531.456a31.3 31.3 0 1 1 320.512 0 31.3 31.3 0 1 1-320.512 0z"  horiz-adv-x="1024" />

    
    <glyph glyph-name="penyao" unicode="&#58892;" d="M391.98 661.847c36.365 0 65.834 29.475 65.834 65.834 0 36.364-29.469 65.834-65.834 65.834-36.358 0-65.828-29.47-65.828-65.834 0-36.359 29.471-65.834 65.828-65.834zM781.107 224.124c41.021-27.973 31.695 9.324 31.695 9.324-46.514 40.482-154.297 85.338-256.824 121.89-0.484 8.53-2.361 16.09-2.361 16.09L402.575 472.129s13.052 110.016-5.597 149.172C378.33 660.46 279.505 651.14 279.505 651.14L163.899 442.29s-40.725-11.394-38.424 9.957c11.255-0.595 22.194 4.904 27.686 15.142l110.531 206.08c7.694 14.339 1.788 32.473-13.188 40.503-14.978 8.03-33.346 2.915-41.04-11.408L98.934 496.468c-6.094-11.354-3.63-25.068 5.092-34.284-4.213-9.828-11.315-32.943 15.118-32.943H158.3s-24.241-27.973 0-65.271c0 0 41.025-37.287 13.056-76.451C143.382 248.362 8.506-66.77 8.506-66.77l90.745 1.254 128.043 269.122s16.78 41.022 41.025 0c24.239-41.019 59.665-269.122 59.665-269.122l85.777 3.724-108.148 433.22s6.767 13.522 13.936 26.458l34.542 7.111c13.948-0.663 66.912-20.25 131.175-46.45l38.512-22.541s13.842-5.313 23.023-3.085c103.013-43.708 212.373-93.848 234.306-108.797zM338.819 425.089c6.199 4.869 17.539 10.099 32.054 0.418l34.995-20.485c-29.414 9.082-52.957 15.996-67.049 20.067zM779.764 163.931c5.275-3.251 12.178-1.591 15.42 3.685 3.258 5.274 11.066 31.579 4.863 31.214-7.783-0.496-20.748-14.196-23.979-19.471-3.238-5.294-1.578-12.21 3.696-15.428zM739.086 131.146c-3.238-5.304-1.588-12.208 3.676-15.438 5.285-3.25 12.193-1.59 15.445 3.703 3.234 5.256 11.037 31.57 4.863 31.203-7.799-0.482-20.754-14.204-23.984-19.468zM721.211 71.189c3.238 5.275 11.043 31.579 4.857 31.214-7.787-0.494-20.742-14.204-23.971-19.469-3.25-5.295-1.59-12.2 3.678-15.428 5.282-3.25 12.192-1.592 15.436 3.683zM689.076 54.191c-7.787-0.484-20.742-14.195-23.971-19.471-3.24-5.281-1.592-12.208 3.674-15.436 5.283-3.23 12.193-1.593 15.438 3.702 3.246 5.256 11.051 31.58 4.859 31.205zM652.086 5.978c-7.793-0.473-20.742-14.203-23.979-19.458-3.244-5.306-1.59-12.208 3.682-15.438 5.273-3.249 12.188-1.589 15.432 3.685 3.246 5.274 11.049 31.577 4.865 31.211zM825.424 108.35c0 4.69-5.799 24.723-9.939 22.047-5.18-3.418-8.33-17.395-8.33-22.047 0.014-4.703 4.123-8.495 9.145-8.495 5.044-0.001 9.124 3.822 9.124 8.495zM816.299 47.898c5.045 0 9.125 3.812 9.125 8.484 0 4.693-5.799 24.743-9.939 22.058-5.18-3.408-8.33-17.395-8.33-22.058 0.013-4.69 4.122-8.484 9.144-8.484zM816.299-4.058c5.045 0 9.125 3.812 9.125 8.495 0 4.691-5.799 24.732-9.939 22.036-5.18-3.387-8.33-17.384-8.33-22.036 0.013-4.691 4.122-8.495 9.144-8.495zM816.988-20.542c-5.188-3.41-8.334-17.396-8.334-22.059 0.012-4.69 4.121-8.483 9.146-8.483 5.043 0 9.117 3.822 9.117 8.483 0.001 4.705-5.796 24.736-9.929 22.059zM861.609 179.358c-3.232 5.274-16.199 18.975-23.982 19.471-6.203 0.365 1.609-25.939 4.867-31.214 3.232-5.275 10.141-6.936 15.412-3.685 5.274 3.219 6.932 10.135 3.703 15.428zM874.602 150.614c-6.178 0.367 1.631-25.947 4.865-31.203 3.252-5.293 10.172-6.953 15.443-3.703 5.271 3.23 6.92 10.135 3.672 15.438-3.23 5.264-16.172 18.986-23.98 19.468zM911.605 102.403c-6.178 0.365 1.613-25.938 4.861-31.214 3.24-5.275 10.146-6.934 15.432-3.683 5.258 3.228 6.918 10.133 3.684 15.428-3.23 5.265-16.199 18.975-23.977 19.469zM948.611 54.191c-6.215 0.375 1.6-25.949 4.848-31.204a11.22 11.22 0 0 1 15.43-3.702c5.271 3.228 6.914 10.154 3.686 15.436-3.237 5.275-16.19 18.986-23.964 19.47zM1009.561-13.48c-3.234 5.255-16.186 18.985-23.979 19.458-6.178 0.366 1.619-25.937 4.865-31.212 3.244-5.273 10.154-6.934 15.441-3.685 5.257 3.231 6.921 10.133 3.673 15.439zM818.211 177.136c-0.967 0.283-1.693-0.337-2.23-1.544-0.535 1.207-1.26 1.827-2.229 1.544-6.381-1.887-14.578-15.772-16.268-20.771-1.689-5.028 1.016-10.472 5.994-12.159 5.02-1.689 10.453 1.009 12.15 5.996 0.119 0.347 0.236 0.8 0.352 1.309 0.113-0.509 0.23-0.962 0.352-1.309 1.707-4.987 7.139-7.686 12.148-5.996 4.982 1.688 7.693 7.131 6.006 12.159-1.689 4.998-9.894 18.884-16.275 20.771zM839.846 129.961c-5.055 1.483-3.555-21.928-1.85-26.916 1.684-5.018 7.139-7.733 12.146-6.024 4.994 1.698 7.68 7.13 5.988 12.178-1.671 4.988-9.876 18.875-16.284 20.762zM861.541 82.786c-5.088 1.473-3.586-21.907-1.889-26.936 1.709-5.019 7.141-7.695 12.148-6.006 5 1.709 7.697 7.142 6.006 12.17-1.689 5-9.876 18.877-16.265 20.772zM883.197 35.603c-5.068 1.48-3.58-21.929-1.863-26.927 1.689-5.009 7.137-7.695 12.135-6.016 4.998 1.718 7.709 7.15 6.002 12.18-1.692 4.997-9.864 18.884-16.274 20.763zM904.873-11.574c-5.082 1.473-3.58-21.919-1.877-26.936 1.703-4.998 7.141-7.696 12.164-6.006 4.998 1.708 7.68 7.141 5.986 12.181-1.691 4.987-9.886 18.865-16.273 20.761zM792.119 129.961c-6.41-1.887-14.607-15.773-16.287-20.763-1.689-5.048 0.988-10.479 5.988-12.178 5.016-1.709 10.457 1.007 12.148 6.024 1.71 4.989 3.21 28.4-1.849 26.917zM770.43 82.786c-6.398-1.896-14.584-15.772-16.275-20.771-1.688-5.028 1.004-10.461 6.002-12.17 5.014-1.689 10.451 0.987 12.148 6.006 1.709 5.028 3.211 28.408-1.875 26.935zM748.768 35.603c-6.41-1.879-14.586-15.766-16.279-20.763-1.707-5.029 1.004-10.462 6.008-12.18 4.996-1.68 10.443 1.007 12.133 6.016 1.718 4.998 3.206 28.407-1.862 26.927zM727.082-11.574c-6.381-1.896-14.576-15.773-16.264-20.761-1.701-5.04 0.988-10.473 5.986-12.181 5.018-1.69 10.459 1.008 12.164 6.006 1.694 5.017 3.206 28.408-1.886 26.936z"  horiz-adv-x="1024" />

    
    <glyph glyph-name="xiala" unicode="&#58949;" d="M755.342 462.11L537.778 224.2a34.238 34.238 0 0 0-25.718-11.637A34.238 34.238 0 0 0 486.34 224.2L268.777 462.11c-10.621 11.218-13.903 27.568-8.414 42.009s18.737 24.525 34.133 25.897h434.949c15.455-1.313 28.761-11.337 34.251-25.838 5.55-14.5 2.268-30.79-8.354-42.068z"  horiz-adv-x="1024" />

    
    <glyph glyph-name="quanping" unicode="&#58902;" d="M938.667 768H640c-23.467 0-42.667 19.2-42.667 42.667s19.2 42.666 42.667 42.666h298.667c23.466 0 42.666-19.2 42.666-42.666S962.133 768 938.667 768M384 768H85.333c-23.466 0-42.666 19.2-42.666 42.667s19.2 42.666 42.666 42.666H384c23.467 0 42.667-19.2 42.667-42.666S407.467 768 384 768M896 512V810.667c0 23.466 19.2 42.666 42.667 42.666s42.666-19.2 42.666-42.666V512c0-23.467-19.2-42.667-42.666-42.667S896 488.533 896 512m-853.333 0V810.667c0 23.466 19.2 42.666 42.666 42.666S128 834.133 128 810.667V512c0-23.467-19.2-42.667-42.667-42.667S42.667 488.533 42.667 512m42.666-512H384c23.467 0 42.667-19.2 42.667-42.667s-19.2-42.666-42.667-42.666H85.333c-23.466 0-42.666 19.2-42.666 42.666S61.867 0 85.333 0M640 0h298.667c23.466 0 42.666-19.2 42.666-42.667s-19.2-42.666-42.666-42.666H640c-23.467 0-42.667 19.2-42.667 42.666S616.533 0 640 0M128-42.667c0-23.466-19.2-42.666-42.667-42.666s-42.666 19.2-42.666 42.666V256c0 23.467 19.2 42.667 42.666 42.667S128 279.467 128 256v-298.667z m853.333 0c0-23.466-19.2-42.666-42.666-42.666S896-66.133 896-42.667V256c0 23.467 19.2 42.667 42.667 42.667s42.666-19.2 42.666-42.667v-298.667zM908.535 840.875c16.598 16.597 43.776 16.597 60.374 0 16.554-16.598 16.554-43.734 0-60.331l-286.25-286.208a42.778 42.778 0 0 0-60.332 0 42.778 42.778 0 0 0 0 60.33L908.535 840.876zM341.316 273.664c16.606 16.597 43.776 16.597 60.382 0 16.555-16.597 16.555-43.733 0-60.33l-286.25-286.209a42.778 42.778 0 0 0-60.331 0 42.778 42.778 0 0 0 0 60.331l286.208 286.208z"  horiz-adv-x="1024" />

    
    <glyph glyph-name="yueliang" unicode="&#58928;" d="M532.88384-116.864A533.76 533.76 0 0 0 198.54784 1.6 528.96 528.96 0 0 0 3.41184 357.376 521.6 521.6 0 0 0 116.62784 745.088 519.872 519.872 0 0 0 283.34784 881.408a31.872 31.872 0 0 0 46.208-30.272c-13.76-201.28 57.6-380.736 195.904-492.352 92.8-74.944 209.344-114.624 336.896-114.624 40.704 0 82.432 4.032 124.096 12.288a31.552 31.552 0 0 0 30.272-11.072c7.424-8.96 9.408-21.12 5.056-31.936a523.648 523.648 0 0 0-79.104-135.104 524.224 524.224 0 0 0-409.792-195.2zM264.46784 796.544a456 456 0 0 1-98.56-91.2 459.2 459.2 0 0 1-99.52-341.12 466.432 466.432 0 0 1 171.968-313.408 470.848 470.848 0 0 1 294.592-104.32 461.12 461.12 0 0 1 405.504 238.528c-25.536-2.752-51.008-4.096-76.032-4.096-142.144 0-272.384 44.48-376.704 128.64C344.85184 423.104 266.00384 598.336 264.46784 796.544z"  horiz-adv-x="1024" />

    
    <glyph glyph-name="rengongcaizhai" unicode="&#58900;" d="M915.3 481.4H801C772.7 615 653.9 715.5 512 715.5S251.3 615 223 481.4H108.7c-27.1 0-45.3-27.8-34.5-52.6l154-353.7c6-13.7 19.5-22.6 34.5-22.6h498.6c15 0 28.5 8.9 34.5 22.6l154 353.7c10.8 24.8-7.4 52.6-34.5 52.6zM512 645.5c103 0 190.1-69.5 216.9-164.1H295.1C321.9 576 409 645.5 512 645.5zM362.7 171.3c-43.8 0-79.2 35.5-79.2 79.2s35.5 79.2 79.2 79.2c43.8 0 79.2-35.5 79.2-79.2s-35.5-79.2-79.2-79.2z m298.6 1.1c-43.8 0-79.2 35.5-79.2 79.2 0 43.8 35.5 79.2 79.2 79.2 43.8 0 79.2-35.5 79.2-79.2 0.1-43.7-35.4-79.2-79.2-79.2z"  horiz-adv-x="1024" />

    
    <glyph glyph-name="qing" unicode="&#59093;" d="M516.096 640c141.312 0 256-114.688 256-256s-114.688-256-256-256-256 114.688-256 256 114.688 256 256 256z m4.608-68.608c-105.984 0-192-86.016-192-192s86.016-192 192-192 192 86.016 192 192-86.016 192-192 192z m-4.608 260.608c17.92 0 31.744-14.336 31.744-31.744v-96.256c0-17.92-14.336-31.744-31.744-31.744s-31.744 14.336-31.744 31.744v96.256c-0.512 17.408 13.824 31.744 31.744 31.744z m316.928-131.072c12.288-12.288 12.288-32.768 0-45.056l-68.096-68.096c-12.288-12.8-32.768-13.312-45.056-1.024-12.8 12.288-13.312 32.768-1.024 45.056l1.024 1.024 68.096 68.096c12.288 12.288 32.256 12.288 45.056 0z m131.072-316.928c0-17.92-14.336-31.744-31.744-31.744h-95.744c-17.92 0-31.744 14.336-31.744 31.744s14.336 31.744 31.744 31.744H931.84c17.92 0.512 32.256-13.824 32.256-31.744z m-131.072-316.928c-12.288-12.288-32.768-12.288-45.056 0l-68.096 68.096c-12.288 12.8-11.776 32.768 1.024 45.056 12.288 11.776 32.256 11.776 44.544 0l68.096-68.096c11.776-12.288 11.776-32.256-0.512-45.056z m-316.928-131.072c-17.92 0-31.744 14.336-31.744 31.744v96.256c0 17.92 14.336 31.744 31.744 31.744s31.744-14.336 31.744-31.744v-96.256c0-17.408-14.336-31.744-31.744-31.744z m-316.928 131.072c-12.288 12.288-12.288 32.768 0 45.056l68.096 68.096c12.288 12.8 32.768 13.312 45.056 1.024 12.8-12.288 13.312-32.768 1.024-45.056l-1.024-1.024-68.096-68.096c-12.288-12.288-32.256-12.288-45.056 0z m-131.072 316.928c0 17.92 14.336 31.744 31.744 31.744h96.256c17.92 0 31.744-14.336 31.744-31.744s-14.336-31.744-31.744-31.744h-96.256c-17.408 0-31.744 14.336-31.744 31.744z m131.072 316.928c12.288 12.288 32.768 12.288 45.056 0l68.096-68.096c12.8-12.288 13.312-32.768 1.024-45.056-12.288-12.8-32.768-13.312-45.056-1.024l-1.024 1.024-68.096 68.096c-12.288 12.288-12.288 32.256 0 45.056z"  horiz-adv-x="1032" />

    
    <glyph glyph-name="rili" unicode="&#58935;" d="M480 256h64c17.92 0 32 14.08 32 32s-14.08 32-32 32h-64c-17.92 0-32-14.08-32-32s14.08-32 32-32z m0-128h64c17.92 0 32 14.08 32 32s-14.08 32-32 32h-64c-17.92 0-32-14.08-32-32s14.08-32 32-32z m352 576H704v32c0 17.92-14.08 32-32 32s-32-14.08-32-32v-32H384v32c0 17.92-14.08 32-32 32s-32-14.08-32-32v-32H192c-70.4 0-128-57.6-128-128v-512c0-70.4 57.6-128 128-128h640c70.4 0 128 57.6 128 128V576c0 70.4-57.6 128-128 128z m64-640c0-35.2-28.8-64-64-64H192c-35.2 0-64 28.8-64 64V448h768v-384z m0 448H128v64c0 35.2 28.8 64 64 64h128v-32c0-17.92 14.08-32 32-32s32 14.08 32 32v32h256v-32c0-17.92 14.08-32 32-32s32 14.08 32 32v32h128c35.2 0 64-28.8 64-64v-64zM288 128h64c17.92 0 32 14.08 32 32s-14.08 32-32 32h-64c-17.92 0-32-14.08-32-32s14.08-32 32-32z m384 128h64c17.92 0 32 14.08 32 32s-14.08 32-32 32h-64c-17.92 0-32-14.08-32-32s14.08-32 32-32z m-384 0h64c17.92 0 32 14.08 32 32s-14.08 32-32 32h-64c-17.92 0-32-14.08-32-32s14.08-32 32-32z m384-128h64c17.92 0 32 14.08 32 32s-14.08 32-32 32h-64c-17.92 0-32-14.08-32-32s14.08-32 32-32z"  horiz-adv-x="1024" />

    
    <glyph glyph-name="quanshengdatingshikuang" unicode="&#58970;" d="M645.565217 83.478261H378.434783a22.26087 22.26087 0 0 1 0-44.521739h267.130434a22.26087 22.26087 0 0 1 0 44.521739zM923.826087 150.26087h-823.652174a89.043478 89.043478 0 0 0-89.043478 89.043478v512a89.043478 89.043478 0 0 0 89.043478 89.043478h823.652174a89.043478 89.043478 0 0 0 89.043478-89.043478v-512a89.043478 89.043478 0 0 0-89.043478-89.043478z m-801.391304 623.304347a44.521739 44.521739 0 0 1-44.52174-44.521739v-467.478261a44.521739 44.521739 0 0 1 44.52174-44.521739h779.130434a44.521739 44.521739 0 0 1 44.52174 44.521739v467.478261a44.521739 44.521739 0 0 1-44.52174 44.521739zM611.728696 533.815652l-155.826087 89.043478a44.521739 44.521739 0 0 1-66.782609-38.511304v-178.086956a44.521739 44.521739 0 0 1 66.782609-38.511305l155.826087 89.043478a44.521739 44.521739 0 0 1 0 77.022609zM111.304348-16.695652m33.391304 0l734.608696 0q33.391304 0 33.391304-33.391305l0 0q0-33.391304-33.391304-33.391304l-734.608696 0q-33.391304 0-33.391304 33.391304l0 0q0 33.391304 33.391304 33.391305Z"  horiz-adv-x="1024" />

    
    <glyph glyph-name="shifeixiugai" unicode="&#58925;" d="M175.9 337.1c19.6-50.8 74.3-74.3 121.3-54.8l289.4 168.1-125.1 352L121.1 736c-50.8-19.6-74.3-74.3-54.8-121.3l109.6-277.6z m11.6 246.4c15.6 11.8 43 15.6 78.2 11.8 11.8 27.4 39.2 43 66.5 39.2 35.2-4 129.1-70.4 129.1-82.1 0-11.8-113.3-47-148.5-43-31.4 4-54.8 31.4-54.8 62.6-35.2 4-50.8 0-54.8-4-7.8-4-11.8-23.4-19.6-23.4-7.8 0-11.8 4-11.8 11.8 0.1-4.2 0.1 11.5 15.7 27.1zM625.6 630.5c11.8-4 23.4 0 27.4 11.8s4 50.8 0 50.8-33.4-24.6-39.2-35.2c-4-7.8-2.6-22 11.8-27.4zM719.3 278.5c12.3 7.8 15.6 19.6 11.8 27.4-4 11.8-35.2 35.2-39.2 35.2s-4.5-38.8 0-50.8c4-11.8 15.7-19.6 27.4-11.8zM813.3 309.7c11.8-4 23.4 4 27.4 15.6 4 11.8-4 23.4-15.6 27.4-11.8 4-50.8-7.8-50.8-11.8-4-3.8 27.2-27.2 39-31.2zM641.2 505.4c11.8 4 15.6 19.6 11.8 27.4-4 11.8-35.2 35.2-39.2 35.2s-6.1-36.6 0-50.8c6.9-12.4 18.9-14.4 27.4-11.8zM613.8 356.7c-4-11.8 0-23.4 11.8-27.4s23.4 0 27.4 11.8 4 50.8 0 50.8-35.4-23.4-39.2-35.2zM727.1 427c11.8-4 23.4 0 27.4 11.8s4 50.8 0 50.8-30.7-23.4-39.2-35.2c-10.2-14.9-2-21.5 11.8-27.4zM941.5 147.5c-14.9 0-28.6-5.7-39.2-14.6-10.6 9-24.1 14.6-39.2 14.6-15.1 0-28.6-5.7-39.2-14.6-10.6 9-24.1 14.6-39.2 14.6s-28.6-5.7-39.2-14.6c-10.6 9-24.1 14.6-39.2 14.6-14.9 0-28.6-5.7-39.2-14.6-10.6 9-24.1 14.6-39.2 14.6s-28.6-5.7-39.2-14.6c-10.6 9-24.1 14.6-39.2 14.6-14.9 0-28.6-5.7-39.2-14.6-10.6 9-24.1 14.6-39.2 14.6-14.9 0-28.6-5.7-39.2-14.6-10.6 9-24.1 14.6-39.2 14.6-14.9 0-28.6-5.7-39.2-14.6-10.6 9-24.1 14.6-39.2 14.6-14.9 0-28.6-5.7-39.2-14.6-10.6 9-24.1 14.6-39.2 14.6s-28.6-5.7-39.2-14.6c-10.6 9-24.1 14.6-39.2 14.6-15.1 0-28.6-5.7-39.2-14.6-10.6 9-24.1 14.6-39.2 14.6-32.4 0-58.6-25.3-60.3-57.2h1v-100c0-23.9 19.4-43.3 43.3-43.3H959c23.9 0 43.3 19.4 43.3 43.3v100h-0.3c-1.9 31.9-28.1 57.2-60.5 57.2z"  horiz-adv-x="1024" />

    
    <glyph glyph-name="ziliaoshouji" unicode="&#59089;" d="M896 704v-704H256.8C185.6 0 128 57.6 128 128.8V639.2c0 71.2 57.6 128.8 128.8 128.8H768v-512H257.6c-36 0-65.6-29.6-65.6-65.6v-60.8c0-36 29.6-65.6 65.6-65.6H832V704h64zM768 192H256v-64h512v64z"  horiz-adv-x="1024" />

    
    <glyph glyph-name="feng" unicode="&#58917;" d="M333 563.4h428.6c19.7 0 35.7 16 35.7 35.7 0 19.7-16 35.7-35.7 35.7H333c-19.7 0-35.7-16-35.7-35.7 0-19.9 16-35.7 35.7-35.7zM154.4 420.5h642.9c118.4 0 214.2 96 214.2 214.2 0 118.4-96 214.2-214.2 214.2v-71.4c100.8-19 142.9-63.9 142.9-142.9s-82.6-142.9-184.6-142.9H154.4c-19.7 0-35.7-16-35.7-35.7 0-19.5 15.9-35.5 35.7-35.5z m357.3-214.4c-0.2 0-0.2 0 0 0H225.9c-19.7 0-35.7-16-35.7-35.7 0-19.7 16-35.7 35.7-35.7h285.8c39.5 0 71.4-32 71.4-71.4 0-39.5-32-71.4-71.4-71.4v-71.4c78.9 0 142.9 63.9 142.9 142.9-0.2 78.8-64.1 142.7-142.9 142.7zM797.3 349H47.2c-19.7 0-35.7-16-35.7-35.7s16-35.7 35.7-35.7h708.4c102 0 184.6-63.9 184.6-142.9S879.1-8.2 726-8.2v-71.5h71.4c118.4 0 214.2 96 214.2 214.2-0.1 118.6-95.9 214.5-214.3 214.5z"  horiz-adv-x="1024" />

    
    <glyph glyph-name="shuaxin" unicode="&#58934;" d="M951.844 123.165l-92.879 137.37c-3.656 5.244-11.283 9.216-20.578 10.646-9.218 1.35-19.07 0-26.378-3.815l-189.252-97.088c-8.582-4.37-12.315-11.122-9.853-17.797 2.622-6.593 11.124-11.839 21.929-13.426l49.975-7.469c-49.658-58.317-115.441-93.751-179.64-93.751-125.055 0-264.572 137.21-264.572 333.852 0 23.2-31.145 42.19-69.6 42.19s-69.598-18.99-69.598-42.19c0-234.38 177.334-418.071 403.77-418.071 127.916 0 242.803 57.76 317.724 157.154l95.818-14.459a55.84 55.84 0 0 1 7.23-0.477h0.398c16.447 0 29.794 8.024 29.794 17.955 0 3.497-1.589 6.594-4.288 9.376z m-765.91 380.729c-9.296 1.43-17.003 5.244-20.578 10.646L70.73 654.295c-4.29 6.277-2.224 13.666 5.084 18.672 7.31 5.244 18.91 7.388 29.715 5.8l95.898-14.46C276.35 763.54 391.236 821.54 519.153 821.54c226.435 0 403.769-183.77 403.769-418.152 0-23.358-31.144-42.188-69.6-42.188-38.454 0-69.598 18.83-69.598 42.188 0 196.642-139.438 333.854-264.571 333.854-64.197 0-129.984-35.434-179.64-93.752l49.975-7.47c10.884-1.826 19.306-6.831 21.928-13.426 2.542-6.674-1.272-13.665-9.851-18.035l-189.333-97.01c-5.402-2.78-12.236-4.132-19.148-4.132-2.462 0-4.846 0.16-7.15 0.477z"  horiz-adv-x="1024" />

    
    <glyph glyph-name="shidu" unicode="&#58882;" d="M738.844 54.41999999999996c-113.108 0-204.8 91.692-204.8 204.8 0 163.161 143.268 310.37 190.135 354.163 0.137-0.137 0.289-0.259 0.431-0.393a19.936 19.936 0 0 0 29.2 0.292C800.981 569.713 943.644 424.3 943.644 259.22c0-113.108-91.692-204.8-204.8-204.8z m14.076 476.424c-0.021-0.02-0.044-0.036-0.065-0.056a16.955 16.955 0 0 1-27.02 0c-0.15 0.138-0.311 0.264-0.457 0.406C689.331 491.349 593.349 374.48 593.349 259.79999999999995c0-80.244 65.141-145.294 145.5-145.294S884.344 179.55700000000002 884.344 259.79999999999995c0 116.98-94.925 231.377-131.424 271.044z m5.424-367.344h-4a110 110 0 0 0-105.54 141h0.471a29.5 29.5 0 0 0 57.069-10.5c0-2.724-2-9.086-2-20.5a50 50 0 0 1 50-50c1.348 0 2.679 0.069 4 0.174v-0.174a30 30 0 0 0 0-60z m-358-43a140.354 140.354 0 0 1 29 3.033v-0.184c0.987 0.1 1.987 0.151 3 0.151a29.984 29.984 0 0 0 4-59.7v-0.059a201.146 201.146 0 0 0-36-3.241c-110.457 0-200 89.543-200 200a200.472 200.472 0 0 0 5.225 45.528 29.982 29.982 0 1 0 59.325-8.528h0.4a140.077 140.077 0 0 1 135.05-177z m173 443a29.95 29.95 0 0 0-25.286 13.9c-0.121-0.157-0.255-0.3-0.368-0.466-51.356 75.812-106.381 131.477-132.256 156.466-0.14-0.161-0.3 0.695-0.445 0.538a17.964 17.964 0 0 1-29.292 0c-0.088 0.095-0.187 0.18-0.274 0.278C330.176 679.636 140.344 476.4 140.344 260.5c0-143.594 116.406-260 260-260a258.778 258.778 0 0 1 147.6 45.952 29.972 29.972 0 1 0 38.88-45.552c0.069-0.094 0.131-0.193 0.2-0.285a318.466 318.466 0 0 0-186.68-60.115c-176.731 0-320 143.269-320 320 0 264.941 241.8 503 305.017 560.713 0.08-0.078 0.169-0.145 0.249-0.222a19.931 19.931 0 0 0 28.46 1.029c0.085 0.093 0.181 0.177 0.265 0.272 31.707-28.469 111.748-104.84 182.017-209.046l-0.22-0.266a29.977 29.977 0 0 0-22.788-49.48z"  horiz-adv-x="1024" />

    
    <glyph glyph-name="xiaoping" unicode="&#58885;" d="M401.41988346 779.4438795c-19.67698173 0-36.76488691-14.36937482-36.76488693-35.85871011v-172.30304396l-231.72235061 245.83281777c-14.7577363 15.14609778-37.02379457 15.14609778-51.78153086 0s-14.7577363-40.5190479 0-55.7945995l237.41831902-251.91714764H131.63810764c-22.26605827 0-37.02379457-16.57008987-37.02379456-35.59980248v-2.33016887c0-19.02971259 17.34681283-35.59980247 37.02379456-35.59980249h270.55849878c9.5795832-0.25890765 19.15916642 3.49525333 26.79694222 11.3919368 2.07126124 2.58907653 3.88361482 5.56651457 5.17815308 8.67340641 2.58907653 4.78979161 4.01306864 10.09739852 4.01306864 15.53445928V743.58516939c0 19.15916642-17.08790518 35.85871013-36.7648869 35.85871011z m541.11699752-796.52939852l-233.01688889 231.98125828h182.78880396c19.67698173 0 36.76488691 17.21735902 36.76488691 36.76488691s-17.21735902 36.76488691-36.76488691 36.76488692H621.49138963c-9.5795832 0.25890765-19.15916642-3.3657995-26.79694222-11.0035753-4.40143013-5.17815309-7.1199605-11.78029827-8.41449877-18.38244347 0-0.12945383 0-0.25890765-0.12945383-0.38836148 0-0.25890765-0.12945383-0.51781531-0.12945383-0.90617678-0.38836148-1.94180741-0.51781531-4.01306864-0.5178153-6.08432989v-270.04068345c0-19.67698173 17.21735902-36.76488691 36.7648869-36.76488691s36.76488691 17.21735902 36.76488692 36.76488691V161.94912395999995l231.5928968-230.42781235c14.7577363-14.7577363 37.02379457-14.7577363 51.78153086 0 15.01664395 14.62828247 15.01664395 36.76488691 0.12945382 51.39316937z"  horiz-adv-x="1024" />

    
    <glyph glyph-name="yuzhi" unicode="&#60320;" d="M591.8 300c45.6 45.6 45.6 118.8 0 164.4-45 45.6-379.2 215.4-379.2 215.4S382.4 345.6 427.4 300c45.6-45.6 119.4-45.6 164.4 0zM507.2-37.200000000000045c-231.6 0-420 188.4-420 420 0 33.6 4.2 66.6 11.4 98.4 4.8 19.2 24 31.2 43.8 27 19.2-4.8 31.2-24 27-43.8-6.6-26.4-9.6-54-9.6-81.6 0-191.4 156-347.4 347.4-347.4s347.4 156 347.4 347.4c0 179.4-136.8 327.6-311.4 345.6v-127.8c0-19.8-16.2-36-36-36s-36 16.2-36 36V766.2c0 19.8 16.2 36 36 36 231.6 0 420-188.4 420-420s-188.4-419.4-420-419.4z"  horiz-adv-x="1024" />

    
    <glyph glyph-name="anmobanzhanshiyaosu" unicode="&#59452;" d="M544.711111 59.733333c-22.755556 0-41.244444 18.488889-41.244444 41.244445V401.066667c0 22.755556 18.488889 41.244444 41.244444 41.244444h267.377778c22.755556 0 41.244444-18.488889 41.244444-41.244444v-300.088889c0-22.755556-18.488889-41.244444-41.244444-41.244445H544.711111z m-332.8 0c-22.755556 0-41.244444 18.488889-41.244444 41.244445v133.688889c0 22.755556 18.488889 41.244444 41.244444 41.244444H412.444444c22.755556 0 41.244444-18.488889 41.244445-41.244444v-133.688889c0-22.755556-18.488889-41.244444-41.244445-41.244445H211.911111z m0 265.955556c-22.755556 0-41.244444 18.488889-41.244444 41.244444V667.022222c0 22.755556 18.488889 41.244444 41.244444 41.244445H412.444444c22.755556 0 41.244444-18.488889 41.244445-41.244445v-300.088889c0-22.755556-18.488889-41.244444-41.244445-41.244444H211.911111z m332.8 167.822222c-22.755556 0-41.244444 18.488889-41.244444 41.244445V668.444444c0 22.755556 18.488889 41.244444 41.244444 41.244445h267.377778c22.755556 0 41.244444-18.488889 41.244444-41.244445v-133.688888c0-22.755556-18.488889-41.244444-41.244444-41.244445H544.711111z"  horiz-adv-x="1024" />

    
    <glyph glyph-name="lishi" unicode="&#59049;" d="M511.2 16.2c204.6 0 370.4 165.9 370.4 370.6 0 204.7-165.8 370.6-370.4 370.6S140.8 591.5 140.8 386.8c0-204.7 165.9-370.6 370.4-370.6z m0-74.2C265.8-58 66.7 141.2 66.7 386.8s199 444.7 444.5 444.7 444.5-199.1 444.5-444.7S756.7-58 511.2-58z m37.1 422.9V572.2c0 20.2-16.6 37-37 37-20.6 0-37-16.5-37-37v-222.6c-0.1-9.7 3.7-19.1 10.6-25.9l105.3-105.3c14.4-14.3 37.7-14.3 52 0.2l0.1 0.1c14.4 14.4 14.5 37.6 0.3 52.1l-94.3 94.1z"  horiz-adv-x="1024" />

    
    <glyph glyph-name="guanbi" unicode="&#59229;" d="M921.856-91.008c-13.80352 0-26.7264 5.31456-36.37248 14.96064L512 297.43616l-373.48352-373.48352c-9.64608-9.64608-22.56384-14.96064-36.37248-14.96064s-26.7264 5.31456-36.37248 14.96064l-2.048 2.048c-9.64608 9.64608-14.95552 22.55872-14.95552 36.37248 0 13.80352 5.31456 26.7264 14.95552 36.37248L437.21216 372.224 63.72352 745.70752c-9.88672 9.6256-15.33952 22.54848-15.33952 36.37248s5.4528 26.74688 15.36512 36.39296l2.02752 2.02752c9.64608 9.64608 22.55872 14.95552 36.37248 14.95552 13.80864 0 26.7264-5.31456 36.37248-14.96064L512 446.50496l373.48352 373.99552c9.64608 9.64608 22.56384 14.96064 36.37248 14.96064s26.7264-5.31456 36.37248-14.96064l2.048-2.04288c20.05504-20.05504 20.05504-52.68992 0-72.74496L586.78784 372.224l373.48352-373.48352c9.64608-9.64608 14.96064-22.56384 14.96064-36.37248s-5.31456-26.7264-14.96064-36.37248l-2.048-2.048c-9.64096-9.64096-22.56384-14.95552-36.36736-14.95552zM921.856 832.896c12.544 0 25.088-4.736 34.56-14.208l2.048-2.048c18.944-18.944 18.944-50.176 0-69.12l-375.296-375.296 375.296-375.296c18.944-18.944 18.944-50.176 0-69.12l-2.048-2.048c-9.472-9.472-22.016-14.208-34.56-14.208s-25.088 4.736-34.56 14.208L512 301.056l-375.296-375.296c-9.472-9.472-22.016-14.208-34.56-14.208s-25.088 4.736-34.56 14.208l-2.048 2.048c-18.944 18.944-18.944 50.176 0 69.12l375.296 375.296L65.536 747.52c-19.456 18.944-19.456 50.176 0 69.12l2.048 2.048c9.472 9.472 22.016 14.208 34.56 14.208s25.088-4.736 34.56-14.208L512 442.88l375.296 375.808c9.472 9.472 22.016 14.208 34.56 14.208m0 5.12c-14.4896 0-28.05248-5.5808-38.17984-15.70816L512 450.1248 140.32896 822.30784c-10.13248 10.13248-23.69024 15.70816-38.18496 15.70816s-28.05248-5.5808-38.17984-15.70816l-2.048-2.048A52.91008 52.91008 0 0 1 45.824 782.08c0-14.5152 5.7344-28.09344 16.13824-38.22592L433.59232 372.224l-371.67616-371.67616c-10.12736-10.12736-15.70816-23.69024-15.70816-38.17984s5.5808-28.05248 15.70816-38.17984l2.048-2.048c10.12736-10.12736 23.69024-15.70816 38.17984-15.70816s28.05248 5.5808 38.17984 15.70816L512 293.81632l371.67616-371.67616c10.12736-10.12736 23.69024-15.70816 38.17984-15.70816s28.05248 5.5808 38.17984 15.70816l2.048 2.048c10.12736 10.12736 15.70816 23.69024 15.70816 38.17984s-5.5808 28.05248-15.70816 38.17984L590.40768 372.224l371.67616 371.67616c21.05344 21.05344 21.05344 55.30624 0 76.35968l-2.048 2.048c-10.12736 10.12736-23.69024 15.70816-38.17984 15.70816z"  horiz-adv-x="1024" />

    
    <glyph glyph-name="shangla1" unicode="&#58887;" d="M541.75744 188.72320000000002c-11.25888-11.264-26.54208-21.71904-41.02144-18.50368-14.47936-2.41152-28.15488 8.85248-39.41888 18.50368l-348.30336 349.91104c-17.69472 17.69984-17.69472 46.65344 0 64.35328 17.69984 17.69472 46.65344 17.69472 64.35328 0l324.16768-333.02016001 324.98688 333.02016001c17.69984 17.69472 46.65344 17.69472 64.34816 0 17.69984-17.69984 17.69984-46.65344 0-64.35328L541.75744 188.72320000000002z"  horiz-adv-x="1024" />

    
    <glyph glyph-name="zhanshi" unicode="&#58890;" d="M418.496 250.656L259.04 341.408a32 32 0 0 1-31.68-55.616l159.456-90.752a32 32 0 0 1 31.68 55.616zM790.208 516.192a32 32 0 0 1-31.616 55.648L508.8 429.664 259.04 571.808a32 32 0 0 1-31.68-55.616l253.344-144.16V64a32 32 0 1 1 64 0V373.312c0 0.992-0.48 1.856-0.576 2.848l246.08 140.032zM880.288 663.52L560.192 850.88a95.648 95.648 0 0 1-96.64 0L143.68 663.52A96.64 96.64 0 0 1 96 580.096v-397.664c0-34.784 18.624-66.88 48.736-84l320-181.92a95.52 95.52 0 0 1 94.496 0l320 181.92a96.576 96.576 0 0 1 48.768 84V580.096a96.64 96.64 0 0 1-47.712 83.424zM864 182.432c0-11.584-6.208-22.304-16.256-28l-320-181.92a31.776 31.776 0 0 0-31.488 0l-320 181.92a32.192 32.192 0 0 0-16.256 28V580.096c0 11.456 6.048 22.048 15.904 27.808l319.872 187.36a31.84 31.84 0 0 0 32.192 0l320.128-187.392c9.856-5.728 15.904-16.32 15.904-27.776v-397.664zM778.656 442.048L629.312 353.92c-20.608-12.16-37.344-38.944-37.344-59.808v-176.416c0-20.864 16.704-27.904 37.344-15.744l149.344 88.128C799.264 202.24 816 229.024 816 249.888V426.304c0 20.864-16.704 27.904-37.344 15.744z"  horiz-adv-x="1024" />

    
    <glyph glyph-name="shanchu" unicode="&#59105;" d="M788.75 721.05h-90.45L687.5 792.15c-3.6 22.95-27 41.85-52.2 41.85H388.7C363.5 834 340.1 815.1 336.5 792.15L325.7 721.5H235.25C184.4 721.05 143 683.25 143 636.9v-28.35h738v27.9c0 46.8-41.4 84.6-92.25 84.6zM396.35 777.3h230.85l9-55.8H387.8l8.55 55.8zM804.05 552.3H219.5c-33.75 0-59.4-25.2-55.8-55.8l50.4-506.25c3.15-30.6 32.85-55.8 67.05-55.8h461.25c33.75 0 64.35 25.2 67.05 55.8L859.85 496.5c3.6 30.6-21.6 55.8-55.8 55.8zM296.45 46.5l-30.6 393.75h122.85V46.5H296.45z m277.2 0H450.35V439.8h122.85V46.5z m153.9 0h-92.25V439.8h122.85l-30.6-393.3z"  horiz-adv-x="1024" />

    
    <glyph glyph-name="liebiaozhanshi" unicode="&#59038;" d="M383.9 63.8V191.9h512.3v-128.1H383.9z m0 384.2h512.3v-128H383.9V448z m0 256.2h512.3v-128.1H383.9V704.2zM127.7 191.9h128.1v-128.1H127.7V191.9z m0 256.1h128.1v-128H127.7V448z m0 256.2h128.1v-128.1H127.7V704.2z"  horiz-adv-x="1024" />

    
    <glyph glyph-name="xiaoyu" unicode="&#59029;" d="M939 434.1c-12.9 30.2-31.3 57.3-54.8 80.6-23.4 23.2-50.7 41.4-81 54.2-30.2 12.7-62.2 19.3-95.1 19.8-3.3 12.4-7.4 24.5-12.5 36.4-13.5 31.7-32.9 60.1-57.5 84.5s-53.2 43.5-85 56.8c-33 13.8-68 20.8-104 20.8s-71-7-104-20.8c-31.9-13.4-60.5-32.5-85-56.8-24.6-24.4-43.9-52.8-57.5-84.5-14-32.9-21.2-67.8-21.2-103.8 0-6.8 0.3-13.6 0.8-20.3-22.5-12.1-42.9-28.1-60.4-47.3-37.1-41-57.5-93.9-57.5-148.9 0-30.1 6-59.4 17.9-87.1 11.4-26.5 27.6-50.4 48.2-70.8s44.6-36.5 71.2-47.7c27.7-11.7 57-17.6 87.1-17.6h47.4l40 76h-87.4c-81.6 0-148.4 66.2-148.4 147.2 0 75 57.4 137.3 130.9 146-8.8 21.8-13.8 45.5-13.8 70.4 0 104.9 85.8 190 191.7 190 105.8 0 191.7-85.1 191.7-190 0-7-0.4-13.9-1.2-20.7 20 7.7 41.7 12.1 64.5 12.1 98.9 0 179-79.5 179-177.5 0-92.1-70.8-167.8-161.4-176.6-5.2-0.6-10.5-0.9-15.9-0.9h-61.5l-40-76h101.5c7.6 0 15.6 0.4 23.6 1.3 62.5 6.2 120.4 35 162.9 81.2 43.1 46.8 66.8 107.6 66.8 171 0.1 34.3-6.7 67.6-20.1 99zM430.4-23.3c-6 0-12.1 1.4-17.8 4.5-18.5 9.9-25.5 32.9-15.7 51.4l19.4 36.4c9.9 18.5 32.9 25.5 51.4 15.7 18.5-9.9 25.5-32.9 15.7-51.4L464-3.1c-6.8-12.9-20-20.2-33.6-20.2z m82.5 144.4c-6 0-12.1 1.4-17.8 4.5-18.5 9.9-25.5 32.9-15.7 51.4l19.4 36.4c9.9 18.5 32.9 25.5 51.4 15.7 18.5-9.9 25.5-32.9 15.7-51.4l-19.4-36.4c-6.8-12.8-20-20.2-33.6-20.2zM594.9 470.9c-10.8 0-21.6 4.6-29.1 13.5-13.5 16-11.5 40 4.5 53.5 38.4 32.4 87.2 50.2 137.5 50.2 21 0 38-17 38-38s-17-38-38-38c-32.4 0-63.8-11.5-88.5-32.3-7.1-5.9-15.8-8.9-24.4-8.9z"  horiz-adv-x="1024" />

    
    <glyph glyph-name="xiugai" unicode="&#58889;" d="M723.33824 485.87264l-146.44736 142.79168-312.97024-312.63744-54.54848-199.53664v-0.32768L408.576 171.58144000000004l314.76224 314.2912z m-23.86944 265.10848l-78.4384-78.3104 146.91328-142.2592 76.11392 76.05248c39.95136 39.8848 39.95136 104.63232 0 144.51712-39.8848 39.8848-104.69888 39.8848-144.5888 0zM155.24352 81.83807999999999h718.77632v-94.74048H155.24352v94.74048z"  horiz-adv-x="1024" />

    
    <glyph glyph-name="tuisongguanli" unicode="&#59133;" d="M895.29102883 774.67295428c9.31639586-6.15233723 14.01853881-17.31443364 11.86522125-28.25680461l-112.98327226-678.03147287a27.86129679 27.86129679 0 0 0-38.36421532-21.09372632l-199.95094984 81.56240902-106.78699041-130.16587049a25.92770545 25.92770545 0 0 0-21.70896035-10.15135611 24.16989492 24.16989492 0 0 0-9.66795827 1.75781053 27.50973516 27.50973516 0 0 0-13.49119635 10.37108234 27.55368055 27.55368055 0 0 0-5.05370458 16.08396634v154.02814917L780.50600066 638.26685577 308.62175945 229.92746589l-174.2429706 71.63077991a25.88376005 25.88376005 0 0 0-17.75388685 24.25778572 26.14743167 26.14743167 0 0 0 14.15037501 25.97165084L865.23246909 775.59580534A27.11422734 27.11422734 0 0 0 879.38284408 779.50693342c5.88866561 0 11.1620972-1.6259751 15.82029475-4.83397914"  horiz-adv-x="1024" />

    
    <glyph glyph-name="fanhui" unicode="&#58895;" d="M766.862-125.724c-10.24 0-20.594 3.64-28.444 10.922L228.693 357.604c-15.701 14.563-15.701 38.229 0 52.792L738.418 882.802c15.701 14.563 41.187 14.563 56.889 0 15.701-14.564 15.701-38.23 0-52.793L314.027 384l481.28-446.009c15.701-14.563 15.701-38.23 0-52.793-7.851-7.282-18.205-10.922-28.445-10.922z"  horiz-adv-x="1024" />

    
    <glyph glyph-name="shouji" unicode="&#59016;" d="M899.59765625 326.25585937000005v-308.49609374H116.4921875v308.49609374c20.96191406 37.96875 37.96875 77.91503906 50.22949219 119.83886719 15.8203125 82.66113281 21.75292969 167.29980469 32.82714843 251.14746094 3.55957031 18.58886719 8.30566406 37.17773438 13.84277344 55.37109375h588.515625c3.95507813-6.72363281 7.11914063-13.84277344 9.4921875-21.35742188 8.70117188-65.25878906 18.19335938-130.12207031 24.12597656-195.77636718 2.76855469-74.35546875 24.91699219-146.33789063 64.07226563-209.22363282zM204.29492187 344.44921875h150.29296876c7.91015625 1.97753906 16.21582031-0.39550781 22.54394531-5.53710938 6.328125-5.14160156 9.88769531-13.44726563 9.4921875-21.35742187 3.1640625-65.25878906 56.16210938-116.67480469 121.02539062-117.0703125s118.25683594 50.625 121.81640625 115.88378906c-0.39550781 8.70117188 3.1640625 17.00683594 9.88769532 22.54394532 6.72363281 5.53710938 15.42480469 7.51464844 23.73046875 5.53710937h149.10644531L769.08007813 701.98828125H247.00976562L204.29492187 344.44921875c-0.39550781 0 0 0 1e-8 0z m304.93652344 314.42871094H662.29296875c17.40234375 0 32.03613281-3.1640625 32.03613281-24.12597656s-14.63378906-24.12597656-32.03613281-24.12597657H353.796875c-17.00683594 0-32.03613281 3.1640625-32.03613281 24.12597657s14.63378906 24.12597656 32.03613281 24.12597656h155.43457031z m-0.79101562-145.94238281H355.37890625c-17.79785156 0-34.01367188 2.37304688-33.61816406 24.91699218 0.39550781 20.96191406 15.8203125 23.33496094 32.82714843 23.33496094h306.51855469c17.79785156 0 34.01367188-2.37304688 33.61816407-24.91699219-0.39550781-20.96191406-15.8203125-23.33496094-32.43164063-23.33496093H508.44042969z m-2.76855469-98.0859375H354.58789062c-18.19335938 0-34.01367188 2.76855469-33.22265624 25.3125 0.79101563 20.96191406 16.21582031 22.54394531 33.22265625 22.54394531h306.51855468c18.19335938 0 34.01367188-2.76855469 33.22265625-25.3125-0.79101563-20.96191406-16.21582031-22.93945313-33.22265625-22.93945313l-155.43457031 0.39550782c-0.39550781-0.39550781 0 0 0 0z"  horiz-adv-x="1024" />

    
    <glyph glyph-name="xiala-copy" unicode="&#60321;" d="M268.658 305.89L486.222 543.8a34.238 34.238 0 0 0 25.718 11.637A34.238 34.238 0 0 0 537.66 543.8L755.223 305.89c10.621-11.218 13.903-27.56799999 8.414-42.009s-18.737-24.525-34.133-25.897l-434.949 0c-15.455 1.313-28.761 11.337-34.251 25.838-5.55 14.5-2.268 30.79 8.354 42.068z"  horiz-adv-x="1024" />

    
    <glyph glyph-name="fanhui-copy" unicode="&#60322;" d="M257.138 893.724c10.24 0 20.594-3.64 28.444-10.922L795.307 410.396c15.70100001-14.563 15.701-38.229 0-52.792L285.582-114.80200000000002c-15.70100001-14.563-41.187-14.563-56.889 0-15.701 14.564-15.70100001 38.23 0 52.793L709.973 384l-481.28 446.009c-15.70100001 14.563-15.70100001 38.23 0 52.793 7.851 7.282 18.205 10.922 28.445 10.922z"  horiz-adv-x="1024" />

    


  </font>
</defs>
</svg>
